<?xml version="1.0" encoding="UTF-8"?>
<svg width="432px" height="506px" viewBox="0 0 432 506" version="1.1" xmlns="http://www.w3.org/2000/svg" xmlns:xlink="http://www.w3.org/1999/xlink">
    <!-- Generator: Sketch 49 (51002) - http://www.bohemiancoding.com/sketch -->
    <title>Allergy</title>
    <desc>Created with Sketch.</desc>
    <defs></defs>
    <g id="临摹第一组" stroke="none" stroke-width="1" fill="none" fill-rule="evenodd">
        <g id="Allergy" transform="translate(9.000000, 9.000000)">
            <path d="M193.240794,492.086645 C185.784675,480.824079 190,482 185,471 C184.046105,468.901431 177,455 169,448 C166.815021,446.088144 157.450317,441.884202 152,440 C135.163323,434.179475 121.951596,439.043588 94,433 C90.172597,432.172453 84.2014225,430.744326 81,430 C69.3793637,427.298221 62.0460303,424.693173 59,422.184856 C51.9567473,417.367255 47.6234139,412.972303 46,409 C44.897303,406.30183 44.897303,401.968497 46,396 C50.709396,374.389966 50.709396,369.570472 49.3481485,367 C45.9932852,360.664942 31.9639185,356.946725 41,352" id="Path-2" stroke="#3D9AD9" stroke-width="17"></path>
            <path d="M77,345 C56.4366039,336.774642 48.1194575,350.202875 38,338 C31.1194575,329.702875 47.5010309,312.08866 42,303 C36.0010309,293.08866 27.2016935,306.543825 14,299 C6.20169347,294.543825 -2.48827522,289.358787 1,280 C5.62208773,267.599277 12.0908782,259.387535 17,251 C23.4483516,239.982597 28.325802,229.815862 34,221 C38.1605944,214.535787 43.0893059,209.384444 47,201 C48.6396679,197.484587 52,194.886964 52,189 C52,180.435066 50,173.773151 50,167 C50,161.120349 49.2041149,143.969139 50,138 C52,123 64,102 77,84 C80.8685372,78.6435638 103.465737,49.4770514 116,40 C132.695007,27.3770457 154.320044,16.5986933 162,13 C183.786496,2.79122861 209.966396,3.58715838e-15 235,0 C272.186531,0 323.11206,9.029844 349,33 C363.16217,46.1130338 387.272898,68.6492768 396,88 C403.945851,105.618445 412.628071,129.731847 414,149 C414.497365,155.985281 414.957634,180.560357 411,201 C406.770017,222.846221 398.024717,240.58696 396,247 C385.836807,279.190656 370.27822,287.50035 353,345 C346.440947,366.827669 350.308482,374.187657 358,395 C363.255202,409.219957 367.611284,418.289357 373,428 C385.87221,451.196145 394.904047,464.038776 407,483" id="Path-3" stroke="#3D9AD9" stroke-width="17"></path>
            <path d="M94,201 C103.860932,199.356511 145.510276,212.959267 149,217 C152.489724,221.040733 124.46484,227.789772 108,223" id="Path-4" stroke="#3D9AD9" stroke-width="15"></path>
            <path d="M260,224 C269,197 274,200 280,197 C286,194 300.644341,193.322171 314,200 C327.355659,206.677829 329.489939,211.885705 334,227 C339,243.756196 337.077279,239.487809 336.09731,243.756196 C335.351998,247.002507 334,252 332,256 C326.214201,267.571599 323.057002,267.605707 314,279 C304.942998,290.394293 305,289 301,295 C297,301 300.915905,300.079866 294.169124,308 C287.422343,315.920134 283.71215,322 278,322 C272.28785,322 267.263711,321.543085 260,314 C252.736289,306.456915 252,305.738551 252,295" id="Path-5" stroke="#3D9AD9" stroke-width="17"></path>
            <circle id="Oval" fill="#7F1734" cx="146.5" cy="299.5" r="11.5"></circle>
            <circle id="Oval" fill="#7F1734" cx="201.5" cy="287.5" r="11.5"></circle>
            <circle id="Oval" fill="#7F1734" cx="215.5" cy="233.5" r="11.5"></circle>
            <circle id="Oval" fill="#7F1734" cx="159.5" cy="135.5" r="11.5"></circle>
            <circle id="Oval" fill="#7F1734" cx="216.5" cy="153.5" r="11.5"></circle>
            <circle id="Oval" fill="#7F1734" cx="178.5" cy="323.5" r="11.5"></circle>
            <circle id="Oval" fill="#7F1734" cx="207.5" cy="354.5" r="17.5"></circle>
            <circle id="Oval" fill="#7F1734" cx="122" cy="343" r="8"></circle>
            <circle id="Oval" fill="#7F1734" cx="151.5" cy="370.5" r="11.5"></circle>
            <circle id="Oval" fill="#7F1734" cx="177" cy="175" r="6"></circle>
        </g>
    </g>
</svg>