<?xml version="1.0" encoding="UTF-8"?>
<svg width="479px" height="493px" viewBox="0 0 479 493" version="1.1" xmlns="http://www.w3.org/2000/svg" xmlns:xlink="http://www.w3.org/1999/xlink">
    <!-- Generator: Sketch 49 (51002) - http://www.bohemiancoding.com/sketch -->
    <title>allergy-torso</title>
    <desc>Created with Sketch.</desc>
    <defs></defs>
    <g id="临摹第一组" stroke="none" stroke-width="1" fill="none" fill-rule="evenodd">
        <g id="allergy-torso" transform="translate(13.000000, 9.000000)">
            <path d="M325,475 L226.521903,475 L124,475 C133.012678,438.012082 138.012678,412.012082 139,397 C142.517485,343.517151 132.633446,313 124,313 C110.353677,313 107.293222,349.354553 89,397 C82.7879761,413.179471 68.4546427,439.179471 46,475 L0,475 C26.8125672,406.798111 45.1459005,357.464777 55,327 C71.2629456,276.721736 65.5780878,251.894781 89,209 C100.976911,187.06554 119.422977,177.102737 139,171 C150.374077,167.454364 164.127012,169.598574 172,160 C181.038625,148.980306 183.042227,139.582913 179,128 C176.29996,120.263094 164,100.983178 164,89 C164,74.4231794 171.221792,85.5913946 172,71 C173.221792,48.0913946 167.840294,40.4003944 179,25 C192.840294,5.90039442 201.334485,3.39267191e-15 226.521903,0 C253.834485,0 259.227863,3.21313715 275,23 C286.727863,37.7131372 278.176267,48.2033432 280,71 C281.176267,85.7033432 287,77.3295467 287,92 C287,104.583107 273.125763,120.025193 270,128 C265.715821,138.930291 271.634066,149.209158 280,160 C290.810758,173.944311 311,163 325,171 C339,179 358.768152,192.084983 365,209 C386,266 391.430784,299.127417 402,331 C410.873926,357.760256 427.873926,405.760256 453,475 L406,475 C381.527026,435.719593 366.193693,408.386259 360,393 C339.269663,341.502071 338.833253,313 329,313 C316.240139,313 314.906806,367 325,475 Z" id="Path-6" stroke="#3D9AD9" stroke-width="17"></path>
            <circle id="Oval" fill="#7F1734" cx="260.5" cy="333.5" r="11.5"></circle>
            <circle id="Oval" fill="#7F1734" cx="274.5" cy="279.5" r="11.5"></circle>
            <circle id="Oval" fill="#7F1734" cx="218.5" cy="181.5" r="11.5"></circle>
            <circle id="Oval" fill="#7F1734" cx="275.5" cy="199.5" r="11.5"></circle>
            <circle id="Oval" fill="#7F1734" cx="237.5" cy="369.5" r="11.5"></circle>
            <circle id="Oval" fill="#7F1734" cx="266.5" cy="400.5" r="17.5"></circle>
            <circle id="Oval" fill="#7F1734" cx="181" cy="389" r="8"></circle>
            <circle id="Oval" fill="#7F1734" cx="210.5" cy="416.5" r="11.5"></circle>
            <circle id="Oval" fill="#7F1734" cx="236" cy="221" r="6"></circle>
            <circle id="Oval-Copy" fill="#7F1734" cx="236" cy="261" r="6"></circle>
            <circle id="Oval-Copy-10" fill="#7F1734" cx="142.5" cy="226.5" r="11.5"></circle>
            <circle id="Oval-Copy-9" fill="#7F1734" cx="176" cy="199" r="7"></circle>
            <circle id="Oval-Copy-8" fill="#7F1734" cx="337.5" cy="251.5" r="11.5"></circle>
            <circle id="Oval-Copy-11" fill="#7F1734" cx="178.5" cy="321.5" r="11.5"></circle>
            <circle id="Oval-Copy-7" fill="#7F1734" cx="196" cy="361" r="6"></circle>
            <circle id="Oval-Copy-6" fill="#7F1734" cx="298.5" cy="243.5" r="11.5"></circle>
            <circle id="Oval-Copy-4" fill="#7F1734" cx="186.5" cy="270.5" r="17.5"></circle>
            <circle id="Oval-Copy-3" fill="#7F1734" cx="101" cy="259" r="8"></circle>
            <circle id="Oval-Copy-2" fill="#7F1734" cx="130.5" cy="286.5" r="11.5"></circle>
        </g>
    </g>
</svg>