<?xml version="1.0" encoding="UTF-8"?>
<svg width="175px" height="98px" viewBox="0 0 175 98" version="1.1" xmlns="http://www.w3.org/2000/svg" xmlns:xlink="http://www.w3.org/1999/xlink">
    <!-- Generator: Sketch 49 (51002) - http://www.bohemiancoding.com/sketch -->
    <title>Ambulance</title>
    <desc>Created with Sketch.</desc>
    <defs>
        <path d="M148.154062,38.918328 L167.13932,45.7225418 C167.719889,45.9306145 168.190533,46.5923986 168.190533,47.2131539 L168.190533,84.0031521 L148.154062,84.0031521 L116.906434,84.0031521 L115.864074,6.1465721 L142.330539,6.1465721 C143.244065,6.1465721 144.079542,6.89076177 144.194244,7.79006107 L148.154062,38.8362515 L148.154062,38.918328 Z" id="path-1"></path>
    </defs>
    <g id="Page-1" stroke="none" stroke-width="1" fill="none" fill-rule="evenodd">
        <g id="Artboard" transform="translate(-3.000000, 0.000000)">
            <g id="Ambulance" transform="translate(88.888889, 50.000000) scale(-1, 1) translate(-88.888889, -50.000000) ">
                <g id="Backside" transform="translate(2.084719, 0.000000)">
                    <path d="M0.579088736,7.89586988 C0.579088736,6.36398306 1.82234061,5.12214342 3.35623353,5.12214342 L109.049285,5.12214342 C109.358912,5.12214342 109.609914,5.3719988 109.609914,5.66715405 L109.609914,87.0764381 L0.579088736,87.0764381 L0.579088736,7.89586988 Z" id="Fill" fill="#F7F7F7"></path>
                    <path d="M6.20231968,83.5873521 L116.485443,83.5873521 L115.455245,0.563794949 C115.454153,0.475753476 115.394202,0.4158 115.318636,0.4158 L7.52368944,0.4158 C6.22660032,0.4158 5.1833586,1.46932155 5.19944656,2.76584969 L6.20231968,83.5873521 Z" id="Outline" stroke="#C6C6C6" stroke-width="0.8316"></path>
                </g>
                <g id="Passenger-area">
                    <use fill="#F7F7F7" fill-rule="evenodd" xlink:href="#path-1"></use>
                    <path stroke="#C6C6C6" stroke-width="0.8316" d="M116.285478,6.5623721 L117.316704,83.5873521 L148.154062,83.5873521 L167.774733,83.5873521 L167.774733,47.2131539 C167.774733,46.7702338 167.416502,46.2635799 166.999037,46.1139626 L147.738262,39.2110051 L147.738262,38.918328 L147.741604,38.8888589 L143.781785,7.84266853 C143.693144,7.14769564 143.031458,6.5623721 142.330539,6.5623721 L116.285478,6.5623721 Z"></path>
                </g>
                <g id="Front-light" transform="translate(166.777556, 49.172577)">
                    <path d="M0.202237425,0.331183115 L3.05180918,0.331183115 C3.2050723,0.331183115 3.3293166,0.45683622 3.3293166,0.606950482 L3.3293166,8.94409079 C3.3293166,9.0963929 3.21054988,9.21985816 3.05180918,9.21985816 L0.202237425,9.21985816 L0.202237425,0.331183115 Z" id="Fill" fill="#FFF683"></path>
                    <path d="M1.31735972,1.29942868 L1.31735972,10.9937155 L3.89193148,10.9937155 C3.89319922,10.9937155 3.89397922,10.9938759 3.8944389,10.9940893 L3.8944389,1.2991179 C3.89389193,1.2993036 3.89308663,1.29942868 3.89193148,1.29942868 L1.31735972,1.29942868 Z M3.8944389,10.9940893 C3.89575821,10.9947019 3.8944389,10.9957522 3.8944389,10.9947056 L3.8944389,10.9940893 Z" id="Outline" stroke="#E4DC77" stroke-width="0.55"></path>
                </g>
                <g id="Wheels" transform="translate(19.804835, 71.710008)" fill="#FFFFFF" stroke="#4A4A4A" stroke-width="2.2176">
                    <ellipse id="Oval" cx="11.9871368" cy="11.7809299" rx="11.9871368" ry="11.7809299"></ellipse>
                    <ellipse id="Oval" cx="117.265469" cy="12.8053586" rx="11.9871368" ry="11.7809299"></ellipse>
                </g>
                <g id="Bumpers" transform="translate(0.000000, 74.783294)">
                    <g id="Back">
                        <path d="M1.63593346,2.04735502 C1.63593346,1.89602352 1.75381445,1.77334509 1.91338284,1.77334509 L9.14476139,1.77334509 C9.60318527,1.77334509 9.97481126,2.13794469 9.97481126,2.61167808 L9.97481126,11.743622 C9.97481126,11.8949535 9.85693026,12.0176319 9.69736187,12.0176319 L1.91338284,12.0176319 C1.76015178,12.0176319 1.63593346,11.9025838 1.63593346,11.743622 L1.63593346,2.04735502 Z" id="Fill" fill="#828282" transform="translate(5.805372, 6.895489) scale(-1, 1) translate(-5.805372, -6.895489) "></path>
                        <path d="M10.2353905,10.9915155 L9.24679996,0.304086154 C9.24574477,0.292678735 9.22915722,0.2772 9.22306901,0.2772 L0.826187744,0.2772 C0.535010381,0.2772 0.325410628,0.508400969 0.352668851,0.803083468 L1.29261504,10.9646294 C1.29367023,10.9760368 1.31025777,10.9915155 1.31634599,10.9915155 L10.2353905,10.9915155 Z" id="Outline" stroke="#4A4A4A" stroke-width="0.5544"></path>
                    </g>
                    <g id="Front" transform="translate(168.518519, 7.407407) scale(-1, 1) translate(-168.518519, -7.407407) translate(162.962963, 0.000000)">
                        <path d="M0.59357373,2.04735502 C0.59357373,1.89602352 0.711454729,1.77334509 0.871023118,1.77334509 L8.10240166,1.77334509 C8.56082555,1.77334509 8.93245153,2.13794469 8.93245153,2.61167808 L8.93245153,11.743622 C8.93245153,11.8949535 8.81457053,12.0176319 8.65500214,12.0176319 L0.871023118,12.0176319 C0.717792052,12.0176319 0.59357373,11.9025838 0.59357373,11.743622 L0.59357373,2.04735502 Z" id="Fill" fill="#828282" transform="translate(4.763013, 6.895489) scale(-1, 1) translate(-4.763013, -6.895489) "></path>
                        <path d="M0.304024465,10.9915155 L9.22306901,10.9915155 C9.23136243,10.9915155 9.24553889,10.9782625 9.24679996,10.9646294 L10.2353905,0.2772 L1.86854747,0.2772 C1.55731311,0.2772 1.27082483,0.539655215 1.24173418,0.854147647 L0.304024465,10.9915155 Z" id="Outline" stroke="#4A4A4A" stroke-width="0.5544"></path>
                    </g>
                </g>
                <g id="Strip" transform="translate(6.254158, 51.221434)">
                    <polygon id="Fill" fill="#F0495D" points="3.12707917 1.02442868 160.543572 1.02442868 161.565757 13.3175729 4.1492642 13.3175729"></polygon>
                    <path d="M0.444960727,0.4158 L1.43091006,14.9506303 L161.120797,14.9506303 L160.134847,0.4158 L0.444960727,0.4158 Z" id="Outline" stroke="#D2D2D2" stroke-width="0.8316"></path>
                </g>
                <g id="Lights" transform="translate(125.438013, 5.555556) scale(-1, 1) translate(-125.438013, -5.555556) translate(114.326902, 0.000000)">
                    <g id="Blue" transform="translate(0.000000, 1.024429)">
                        <path d="M1.50801616,0.311585642 C1.50801616,0.159492676 1.6346609,0.0361969652 1.7851385,0.0361969652 L8.80453424,0.0361969652 L8.80453424,5.15834039 L1.7851385,5.15834039 C1.63208806,5.15834039 1.50801616,5.0317249 1.50801616,4.88295171 L1.50801616,0.311585642 Z" id="Fill" fill="#2075B8"></path>
                        <path d="M8.0638778,5.8715721 L8.0638778,0.275 L0.547137063,0.275 C0.394121256,0.275 0.275,0.394419308 0.275,0.545467271 L0.275,5.60110483 C0.275,5.747781 0.398489545,5.8715721 0.547137063,5.8715721 L8.0638778,5.8715721 Z" id="Outline" stroke="#196097" stroke-width="0.55"></path>
                    </g>
                    <g id="Red" transform="translate(9.381238, 0.000000)">
                        <path d="M1.2887619,0.631173213 L8.35540259,0.631173213 C8.50948316,0.631173213 8.63439014,0.763339552 8.63439014,0.903667495 L8.63439014,5.70537846 C8.63439014,5.85587289 8.506893,5.97787274 8.35540259,5.97787274 L1.2887619,5.97787274 L1.2887619,0.631173213 Z" id="Fill" fill="#F0495D"></path>
                        <path d="M0.275,1.29942868 L0.275,6.89600079 L7.79174074,6.89600079 C7.94475654,6.89600079 8.0638778,6.77658148 8.0638778,6.62553352 L8.0638778,1.56989595 C8.0638778,1.42321979 7.94038826,1.29942868 7.79174074,1.29942868 L0.275,1.29942868 Z" id="Outline" stroke="#D13E50" stroke-width="0.55"></path>
                    </g>
                </g>
                <g id="Window" transform="translate(130.649811, 27.107959) scale(-1, 1) translate(-130.649811, -27.107959) translate(119.538700, 12.293144)">
                    <polygon id="Fill" fill="#A3DCFF" points="4.82345579 3.2923811 20.9613397 3.2923811 19.8048348 26.6351458 2.08471945 26.6351458"></polygon>
                    <path d="M3.12128871,0.3465 L0.386608333,25.2642171 L20.5006945,25.2642171 L20.5006945,0.3465 L3.12128871,0.3465 Z" id="Outline" stroke="#94C9E9" stroke-width="0.693"></path>
                </g>
                <g id="Medical-cross" transform="translate(64.637392, 27.935382) scale(-1, 1) translate(-64.637392, -27.935382) translate(47.970725, 11.268716)">
                    <path d="M23.5429524,10.5680219 L30.7565848,10.5680219 C30.9118339,10.5680219 31.0376882,10.6988082 31.0376882,10.8444077 L31.0376882,21.9373102 C31.0376882,22.0899539 30.9189374,22.213696 30.7565848,22.213696 L23.5429524,22.213696 L23.5429524,29.4273285 C23.5429524,29.5825776 23.412166,29.7084318 23.2665666,29.7084318 L12.173664,29.7084318 C12.0210204,29.7084318 11.8972782,29.589681 11.8972782,29.4273285 L11.8972782,22.213696 L4.68364581,22.213696 C4.5283967,22.213696 4.40254243,22.0829096 4.40254243,21.9373102 L4.40254243,10.8444077 C4.40254243,10.691764 4.5212933,10.5680219 4.68364581,10.5680219 L11.8972782,10.5680219 L11.8972782,3.35438943 C11.8972782,3.19914032 12.0280646,3.07328605 12.173664,3.07328605 L23.2665666,3.07328605 C23.4192103,3.07328605 23.5429524,3.19203692 23.5429524,3.35438943 L23.5429524,10.5680219 Z" id="Fill" fill="#F0495D"></path>
                    <path d="M21.5430542,0.3465 L9.72773752,0.3465 L9.72773752,8.94655757 L1.12767996,8.94655757 L1.12767996,20.7618743 L9.72773752,20.7618743 L9.72773752,29.3619318 L21.5430542,29.3619318 L21.5430542,20.7618743 L30.1431118,20.7618743 L30.1431118,8.94655757 L21.5430542,8.94655757 L21.5430542,0.3465 Z" id="Outline" stroke="#CF3E4F" stroke-width="0.693"></path>
                </g>
                <rect id="Door-handle" stroke="#C6C6C6" stroke-width="3.3264" x="124.661648" y="45.7136334" width="1.88539862" height="1"></rect>
            </g>
        </g>
    </g>
</svg>