<?xml version="1.0" encoding="UTF-8"?>
<svg width="128px" height="122px" viewBox="0 0 128 122" version="1.1" xmlns="http://www.w3.org/2000/svg" xmlns:xlink="http://www.w3.org/1999/xlink">
    <!-- Generator: Sketch 49 (51002) - http://www.bohemiancoding.com/sketch -->
    <title>care-home</title>
    <desc>Created with Sketch.</desc>
    <defs></defs>
    <g id="Page-1" stroke="none" stroke-width="1" fill="none" fill-rule="evenodd">
        <g id="10" transform="translate(-307.000000, -282.000000)">
            <g id="care-home" transform="translate(307.000000, 282.000000)">
                <path d="M99.863,4.43375 C99.863,2.04975 97.91175,0.0985 95.5275,0.0985 L32.4705,0.0985 C30.086,0.0985 28.135,2.0495 28.135,4.43375 L28.135,118.82475 L99.863,118.82475 L99.863,4.43375 Z" id="Shape" fill="#3D9AD9"></path>
                <rect id="Rectangle-path" fill="#F2D383" x="28.13625" y="103.5285" width="71.729" height="15.2955"></rect>
                <rect id="Rectangle-path" fill="#000000" opacity="0.2" x="87.33875" y="92.32925" width="12.52375" height="6.027"></rect>
                <rect id="Rectangle-path" fill="#000000" opacity="0.2" x="28.13625" y="75.346" width="12.52375" height="6.027"></rect>
                <rect id="Rectangle-path" fill="#000000" opacity="0.2" x="51.87825" y="43.62425" width="12.52375" height="6.027"></rect>
                <rect id="Rectangle-path" fill="#000000" opacity="0.2" x="84.81" y="33.91325" width="12.52375" height="6.027"></rect>
                <rect id="Rectangle-path" fill="#000000" opacity="0.2" x="60.52975" y="29.22425" width="12.5235" height="6.027"></rect>
                <rect id="Rectangle-path" fill="#000000" opacity="0.2" x="32.22425" y="26.2095" width="12.52375" height="6.027"></rect>
                <rect id="Rectangle-path" fill="#000000" opacity="0.2" x="64.402" y="63.666" width="12.52375" height="6.027"></rect>
                <rect id="Rectangle-path" fill="#000000" opacity="0.2" x="43.39625" y="100.5165" width="12.52375" height="6.027"></rect>
                <rect id="Rectangle-path" fill="#A4A9AD" x="51.87825" y="103.5285" width="24.242" height="15.2955"></rect>
                <path d="M76.12,103.529 L76.12,98.9005 C76.12,97.3105 74.81925,96.0095 73.22975,96.0095 L54.7685,96.0095 C53.17875,96.0095 51.87825,97.3105 51.87825,98.9005 L51.87825,103.529 L76.12,103.529 L76.12,103.529 Z" id="Shape" fill="#FFFFFF"></path>
                <path d="M63.999,32.5455 C62.86775,32.5455 61.95075,31.62875 61.95075,30.49725 L61.95075,21.92225 C61.95075,20.79075 62.86775,19.874 63.999,19.874 C65.13025,19.874 66.04725,20.79075 66.04725,21.92225 L66.04725,30.49725 C66.04725,31.62875 65.13025,32.5455 63.999,32.5455 L63.999,32.5455 Z" id="Shape" fill="#FFB819"></path>
                <path d="M42.12925,32.5455 C40.998,32.5455 40.081,31.62875 40.081,30.49725 L40.081,21.92225 C40.081,20.79075 40.998,19.874 42.12925,19.874 C43.26025,19.874 44.1775,20.79075 44.1775,21.92225 L44.1775,30.49725 C44.17725,31.62875 43.26025,32.5455 42.12925,32.5455 L42.12925,32.5455 Z" id="Shape" fill="#FFB819"></path>
                <path d="M85.869,32.5455 C84.73775,32.5455 83.82075,31.62875 83.82075,30.49725 L83.82075,21.92225 C83.82075,20.79075 84.73775,19.874 85.869,19.874 C87.00025,19.874 87.91725,20.79075 87.91725,21.92225 L87.91725,30.49725 C87.917,31.62875 87,32.5455 85.869,32.5455 L85.869,32.5455 Z" id="Shape" fill="#FFB819"></path>
                <rect id="Rectangle-path" fill="#000000" opacity="0.2" x="28.13625" y="21.922" width="71.729" height="6.16625"></rect>
                <path d="M105.01475,23.03 C105.01475,23.82475 104.3645,24.4755 103.5695,24.4755 L24.43025,24.4755 C23.63525,24.4755 22.985,23.82475 22.985,23.03 L22.985,14.6415 C22.985,13.84675 23.63525,13.1965 24.43025,13.1965 L103.5695,13.1965 C104.3645,13.1965 105.01475,13.84675 105.01475,14.6415 L105.01475,23.03 L105.01475,23.03 Z" id="Shape" fill="#F2D383"></path>
                <path d="M47.33175,54.3915 C47.33175,55.9815 46.031,57.28175 44.4415,57.28175 L39.81675,57.28175 C38.227,57.28175 36.9265,55.98125 36.9265,54.3915 L36.9265,42.8295 C36.9265,41.24025 38.22725,39.93925 39.81675,39.93925 L44.4415,39.93925 C46.03125,39.93925 47.33175,41.24025 47.33175,42.8295 L47.33175,54.3915 L47.33175,54.3915 Z" id="Shape" fill="#FFFFFF"></path>
                <path d="M44.44125,39.939 L39.8165,39.939 C38.22675,39.939 36.92625,41.24 36.92625,42.82925 L36.92625,47.3095 C36.92625,45.72025 38.227,44.41925 39.8165,44.41925 L44.44125,44.41925 C46.031,44.41925 47.3315,45.72025 47.3315,47.3095 L47.3315,42.82925 C47.33175,41.24 46.03125,39.939 44.44125,39.939 L44.44125,39.939 Z" id="Shape" fill="#000000" opacity="0.2"></path>
                <path d="M44.44125,59.33 L39.8165,59.33 C37.09325,59.33 34.878,57.11475 34.878,54.3915 L34.878,42.8295 C34.878,40.10625 37.09325,37.891 39.8165,37.891 L44.44125,37.891 C47.1645,37.891 49.37975,40.10625 49.37975,42.8295 L49.37975,54.3915 C49.38,57.11475 47.1645,59.33 44.44125,59.33 L44.44125,59.33 Z M39.81675,41.98725 C39.36025,41.98725 38.9745,42.37275 38.9745,42.8295 L38.9745,54.3915 C38.9745,54.848 39.36,55.23375 39.81675,55.23375 L44.4415,55.23375 C44.898,55.23375 45.28375,54.84825 45.28375,54.3915 L45.28375,42.8295 C45.28375,42.373 44.89825,41.98725 44.4415,41.98725 L39.81675,41.98725 L39.81675,41.98725 L39.81675,41.98725 Z" id="Shape" fill="#333E48"></path>
                <path d="M69.202,54.3915 C69.202,55.9815 67.90125,57.28175 66.31175,57.28175 L61.687,57.28175 C60.09725,57.28175 58.79675,55.98125 58.79675,54.3915 L58.79675,42.8295 C58.79675,41.24025 60.0975,39.93925 61.687,39.93925 L66.31175,39.93925 C67.9015,39.93925 69.202,41.24025 69.202,42.8295 L69.202,54.3915 L69.202,54.3915 Z" id="Shape" fill="#FFFFFF"></path>
                <path d="M66.31125,39.939 L61.6865,39.939 C60.09675,39.939 58.79625,41.24 58.79625,42.82925 L58.79625,47.3095 C58.79625,45.72025 60.097,44.41925 61.6865,44.41925 L66.31125,44.41925 C67.901,44.41925 69.2015,45.72025 69.2015,47.3095 L69.2015,42.82925 C69.202,41.24 67.90125,39.939 66.31125,39.939 L66.31125,39.939 Z" id="Shape" fill="#000000" opacity="0.2"></path>
                <path d="M66.31125,59.33 L61.6865,59.33 C58.96325,59.33 56.748,57.11475 56.748,54.3915 L56.748,42.8295 C56.748,40.10625 58.96325,37.891 61.6865,37.891 L66.31125,37.891 C69.0345,37.891 71.24975,40.10625 71.24975,42.8295 L71.24975,54.3915 C71.25,57.11475 69.0345,59.33 66.31125,59.33 L66.31125,59.33 Z M61.6865,41.98725 C61.23,41.98725 60.84425,42.37275 60.84425,42.8295 L60.84425,54.3915 C60.84425,54.848 61.22975,55.23375 61.6865,55.23375 L66.31125,55.23375 C66.76775,55.23375 67.1535,54.84825 67.1535,54.3915 L67.1535,42.8295 C67.1535,42.373 66.76775,41.98725 66.31125,41.98725 L61.6865,41.98725 L61.6865,41.98725 L61.6865,41.98725 Z" id="Shape" fill="#333E48"></path>
                <path d="M91.07175,54.3915 C91.07175,55.9815 89.771,57.28175 88.1815,57.28175 L83.5565,57.28175 C81.96675,57.28175 80.66625,55.98125 80.66625,54.3915 L80.66625,42.8295 C80.66625,41.24025 81.967,39.93925 83.5565,39.93925 L88.18125,39.93925 C89.771,39.93925 91.0715,41.24025 91.0715,42.8295 L91.0715,54.3915 L91.07175,54.3915 L91.07175,54.3915 Z" id="Shape" fill="#FFFFFF"></path>
                <path d="M88.18125,39.939 L83.5565,39.939 C81.96675,39.939 80.66625,41.24 80.66625,42.82925 L80.66625,47.3095 C80.66625,45.72025 81.967,44.41925 83.5565,44.41925 L88.18125,44.41925 C89.771,44.41925 91.0715,45.72025 91.0715,47.3095 L91.0715,42.82925 C91.07175,41.24 89.771,39.939 88.18125,39.939 L88.18125,39.939 Z" id="Shape" fill="#000000" opacity="0.2"></path>
                <path d="M88.18125,59.33 L83.5565,59.33 C80.83325,59.33 78.618,57.11475 78.618,54.3915 L78.618,42.8295 C78.618,40.10625 80.83325,37.891 83.5565,37.891 L88.18125,37.891 C90.9045,37.891 93.11975,40.10625 93.11975,42.8295 L93.11975,54.3915 C93.12,57.11475 90.9045,59.33 88.18125,59.33 L88.18125,59.33 Z M83.5565,41.98725 C83.1,41.98725 82.71425,42.37275 82.71425,42.8295 L82.71425,54.3915 C82.71425,54.848 83.09975,55.23375 83.5565,55.23375 L88.18125,55.23375 C88.63775,55.23375 89.0235,54.84825 89.0235,54.3915 L89.0235,42.8295 C89.0235,42.373 88.63775,41.98725 88.18125,41.98725 L83.5565,41.98725 L83.5565,41.98725 L83.5565,41.98725 Z" id="Shape" fill="#333E48"></path>
                <rect id="Rectangle-path" fill="#000000" x="40.081" y="0.0985" width="4.09625" height="8.335"></rect>
                <rect id="Rectangle-path" fill="#000000" x="50.775" y="0.0985" width="4.09625" height="8.335"></rect>
                <rect id="Rectangle-path" fill="#000000" x="73.12725" y="0.0985" width="4.09625" height="8.335"></rect>
                <rect id="Rectangle-path" fill="#000000" x="61.9525" y="0.0985" width="4.09625" height="8.335"></rect>
                <rect id="Rectangle-path" fill="#000000" x="83.82125" y="0.0985" width="4.09625" height="8.335"></rect>
                <path d="M47.33175,82.42875 C47.33175,84.018 46.031,85.319 44.4415,85.319 L39.81675,85.319 C38.227,85.319 36.9265,84.018 36.9265,82.42875 L36.9265,70.86675 C36.9265,69.2775 38.22725,67.9765 39.81675,67.9765 L44.4415,67.9765 C46.03125,67.9765 47.33175,69.2775 47.33175,70.86675 L47.33175,82.42875 L47.33175,82.42875 Z" id="Shape" fill="#FFFFFF"></path>
                <path d="M44.44125,67.9765 L39.8165,67.9765 C38.22675,67.9765 36.92625,69.2775 36.92625,70.86675 L36.92625,75.347 C36.92625,73.757 38.227,72.45675 39.8165,72.45675 L44.44125,72.45675 C46.031,72.45675 47.3315,73.75725 47.3315,75.347 L47.3315,70.86675 C47.33175,69.2775 46.03125,67.9765 44.44125,67.9765 L44.44125,67.9765 Z" id="Shape" fill="#000000" opacity="0.2"></path>
                <path d="M44.44125,87.36725 L39.8165,87.36725 C37.09325,87.36725 34.878,85.152 34.878,82.42875 L34.878,70.86675 C34.878,68.1435 37.09325,65.92825 39.8165,65.92825 L44.44125,65.92825 C47.1645,65.92825 49.37975,68.1435 49.37975,70.86675 L49.37975,82.42875 C49.38,85.152 47.1645,87.36725 44.44125,87.36725 L44.44125,87.36725 Z M39.81675,70.0245 C39.36025,70.0245 38.9745,70.41 38.9745,70.86675 L38.9745,82.42875 C38.9745,82.88525 39.36,83.271 39.81675,83.271 L44.4415,83.271 C44.898,83.271 45.28375,82.8855 45.28375,82.42875 L45.28375,70.86675 C45.28375,70.41025 44.89825,70.0245 44.4415,70.0245 L39.81675,70.0245 L39.81675,70.0245 Z" id="Shape" fill="#333E48"></path>
                <path d="M69.202,82.42875 C69.202,84.018 67.90125,85.319 66.31175,85.319 L61.687,85.319 C60.09725,85.319 58.79675,84.018 58.79675,82.42875 L58.79675,70.86675 C58.79675,69.2775 60.0975,67.9765 61.687,67.9765 L66.31175,67.9765 C67.9015,67.9765 69.202,69.2775 69.202,70.86675 L69.202,82.42875 L69.202,82.42875 Z" id="Shape" fill="#FFFFFF"></path>
                <path d="M66.31125,67.9765 L61.6865,67.9765 C60.09675,67.9765 58.79625,69.2775 58.79625,70.86675 L58.79625,75.347 C58.79625,73.757 60.097,72.45675 61.6865,72.45675 L66.31125,72.45675 C67.901,72.45675 69.2015,73.75725 69.2015,75.347 L69.2015,70.86675 C69.202,69.2775 67.90125,67.9765 66.31125,67.9765 L66.31125,67.9765 Z" id="Shape" fill="#000000" opacity="0.2"></path>
                <path d="M66.31125,87.36725 L61.6865,87.36725 C58.96325,87.36725 56.748,85.152 56.748,82.42875 L56.748,70.86675 C56.748,68.1435 58.96325,65.92825 61.6865,65.92825 L66.31125,65.92825 C69.0345,65.92825 71.24975,68.1435 71.24975,70.86675 L71.24975,82.42875 C71.25,85.152 69.0345,87.36725 66.31125,87.36725 L66.31125,87.36725 Z M61.6865,70.0245 C61.23,70.0245 60.84425,70.41 60.84425,70.86675 L60.84425,82.42875 C60.84425,82.88525 61.22975,83.271 61.6865,83.271 L66.31125,83.271 C66.76775,83.271 67.1535,82.8855 67.1535,82.42875 L67.1535,70.86675 C67.1535,70.41025 66.76775,70.0245 66.31125,70.0245 L61.6865,70.0245 L61.6865,70.0245 Z" id="Shape" fill="#333E48"></path>
                <path d="M91.07175,82.42875 C91.07175,84.018 89.771,85.319 88.1815,85.319 L83.5565,85.319 C81.96675,85.319 80.66625,84.018 80.66625,82.42875 L80.66625,70.86675 C80.66625,69.2775 81.967,67.9765 83.5565,67.9765 L88.18125,67.9765 C89.771,67.9765 91.0715,69.2775 91.0715,70.86675 L91.0715,82.42875 L91.07175,82.42875 L91.07175,82.42875 Z" id="Shape" fill="#FFFFFF"></path>
                <path d="M88.18125,67.9765 L83.5565,67.9765 C81.96675,67.9765 80.66625,69.2775 80.66625,70.86675 L80.66625,75.347 C80.66625,73.757 81.967,72.45675 83.5565,72.45675 L88.18125,72.45675 C89.771,72.45675 91.0715,73.75725 91.0715,75.347 L91.0715,70.86675 C91.07175,69.2775 89.771,67.9765 88.18125,67.9765 L88.18125,67.9765 Z" id="Shape" fill="#000000" opacity="0.2"></path>
                <path d="M88.18125,87.36725 L83.5565,87.36725 C80.83325,87.36725 78.618,85.152 78.618,82.42875 L78.618,70.86675 C78.618,68.1435 80.83325,65.92825 83.5565,65.92825 L88.18125,65.92825 C90.9045,65.92825 93.11975,68.1435 93.11975,70.86675 L93.11975,82.42875 C93.12,85.152 90.9045,87.36725 88.18125,87.36725 L88.18125,87.36725 Z M83.5565,70.0245 C83.1,70.0245 82.71425,70.41 82.71425,70.86675 L82.71425,82.42875 C82.71425,82.88525 83.09975,83.271 83.5565,83.271 L88.18125,83.271 C88.63775,83.271 89.0235,82.8855 89.0235,82.42875 L89.0235,70.86675 C89.0235,70.41025 88.63775,70.0245 88.18125,70.0245 L83.5565,70.0245 L83.5565,70.0245 Z" id="Shape" fill="#333E48"></path>
                <path d="M128,120.7985 C128,121.405 127.504,121.9015 126.897,121.9015 L1.103,121.9015 C0.49625,121.9015 0,121.405 0,120.7985 L0,116.8505 C0,116.2435 0.49625,115.747 1.103,115.747 L126.897,115.747 C127.504,115.747 128,116.2435 128,116.8505 L128,120.7985 L128,120.7985 Z" id="Shape" fill="#A4A9AD"></path>
                <rect id="Rectangle-path" fill="#333E48" x="24.44675" y="115.7465" width="79.10525" height="6.1545"></rect>
                <path d="M32.4855,115.747 C32.4855,110.05025 27.86675,105.43125 22.16975,105.43125 C16.47275,105.43125 11.854,110.05025 11.854,115.747 L32.4855,115.747 L32.4855,115.747 Z" id="Shape" fill="#00AD68"></path>
                <path d="M95.51225,115.747 C95.51225,110.05025 100.131,105.43125 105.828,105.43125 C111.52525,105.43125 116.14375,110.05025 116.14375,115.747 L95.51225,115.747 L95.51225,115.747 Z" id="Shape" fill="#00AD68"></path>
            </g>
        </g>
    </g>
</svg>