<?xml version="1.0" encoding="UTF-8"?>
<svg width="472px" height="554px" viewBox="0 0 472 554" version="1.1" xmlns="http://www.w3.org/2000/svg" xmlns:xlink="http://www.w3.org/1999/xlink">
    <!-- Generator: Sketch 49 (51002) - http://www.bohemiancoding.com/sketch -->
    <title>Artboard</title>
    <desc>Created with Sketch.</desc>
    <defs>
        <linearGradient x1="0%" y1="35.2286849%" x2="100%" y2="35.2286845%" id="linearGradient-1">
            <stop stop-color="#545B6B" stop-opacity="0.755434783" offset="0%"></stop>
            <stop stop-color="#474D5D" offset="100%"></stop>
        </linearGradient>
        <linearGradient x1="38.8559473%" y1="0%" x2="17.8127548%" y2="100%" id="linearGradient-2">
            <stop stop-color="#FAA620" offset="0%"></stop>
            <stop stop-color="#F76B1C" offset="100%"></stop>
        </linearGradient>
        <linearGradient x1="58.4809214%" y1="30.5268892%" x2="17.8127548%" y2="100%" id="linearGradient-3">
            <stop stop-color="#FAA620" offset="0%"></stop>
            <stop stop-color="#F76B1C" offset="100%"></stop>
        </linearGradient>
        <linearGradient x1="170.455041%" y1="54.6022832%" x2="50%" y2="54.6022832%" id="linearGradient-4">
            <stop stop-color="#FAA620" offset="0%"></stop>
            <stop stop-color="#F76B1C" offset="100%"></stop>
        </linearGradient>
        <linearGradient x1="117.077275%" y1="-71.5714862%" x2="20.3261741%" y2="100%" id="linearGradient-5">
            <stop stop-color="#FAA620" offset="0%"></stop>
            <stop stop-color="#F76B1C" offset="100%"></stop>
        </linearGradient>
        <linearGradient x1="92.9409746%" y1="0%" x2="50%" y2="87.3550137%" id="linearGradient-6">
            <stop stop-color="#FAA620" offset="0%"></stop>
            <stop stop-color="#FAA220" offset="47.0667343%"></stop>
            <stop stop-color="#F76B1C" offset="100%"></stop>
        </linearGradient>
    </defs>
    <g id="Artboard" stroke="none" stroke-width="1" fill="none" fill-rule="evenodd">
        <path d="M64.5660377,291.461847 L20.0377358,291.461847 L20.0377358,64.5220884 L64.5660377,64.5220884 L64.5660377,291.461847 Z M64.5660377,313.710843 L64.5660377,554 L20.0377358,554 L20.0377358,313.710843 L64.5660377,313.710843 Z M64.5660377,42.2730924 L20.0377358,42.2730924 L20.0377358,8.91230266 C20.0377358,3.98571918 24.030147,0 28.9550357,0 L55.6487379,0 C60.5752607,0 64.5660377,3.99017382 64.5660377,8.91230266 L64.5660377,42.2730924 Z" id="Rectangle-1" fill="url(#linearGradient-1)"></path>
        <polygon id="Rectangle-2" fill="url(#linearGradient-2)" points="0 64.5220884 0 106.68451 81.3678347 106.68451 81.3678347 313.215133 0 313.215134 0 355.983936 472 355.983936 419.454416 210.253012 472 64.5220884"></polygon>
        <polygon id="Rectangle-3" fill="url(#linearGradient-3)" points="366.374667 64.5220884 256.917463 355.983936 366.374684 355.983936 472 64.5220884"></polygon>
        <polygon id="Rectangle-9" fill="url(#linearGradient-4)" opacity="0.681089044" points="295.129384 64.5220884 185.67218 355.983936 256.935154 355.983936 366.424109 64.5220884"></polygon>
        <polygon id="Rectangle-10" fill="url(#linearGradient-5)" opacity="0.661089086" points="190.487875 64.5220884 81.0306705 355.983936 190.487891 355.983936 296.113208 64.5220884"></polygon>
        <polygon id="Rectangle-4" fill="url(#linearGradient-2)" points="366.445313 64.5220884 419.454416 210.253012 472 64.5220884"></polygon>
        <polygon id="Rectangle-5" fill="url(#linearGradient-6)" opacity="0.661089086" points="366.365138 355.983936 472 355.983936 419.454416 210.253012"></polygon>
        <path d="M20.0377358,355.983936 L64.5660377,355.983936 L64.5660377,378.232932 L20.0377358,378.232932 L20.0377358,355.983936 Z M20.0377358,106.795181 L64.5660377,106.795181 L64.5660377,129.044177 L20.0377358,129.044177 L20.0377358,106.795181 Z" id="Rectangle-10" fill-opacity="0.763870018" fill="#111520"></path>
    </g>
</svg>