<?xml version="1.0" encoding="UTF-8"?>
<svg width="171px" height="157px" viewBox="0 0 171 157" version="1.1" xmlns="http://www.w3.org/2000/svg" xmlns:xlink="http://www.w3.org/1999/xlink">
    <!-- Generator: Sketch 49 (51002) - http://www.bohemiancoding.com/sketch -->
    <title>heart</title>
    <desc>Created with Sketch.</desc>
    <defs></defs>
    <g id="Page-1" stroke="none" stroke-width="1" fill="none" fill-rule="evenodd">
        <g id="12" transform="translate(-392.000000, -324.000000)">
            <g id="heart" transform="translate(358.000000, 274.000000)">
                <g transform="translate(34.176350, 49.590028)">
                    <path d="M170.446581,51.4899993 C170.446581,23.3400147 147.551492,0.522997383 119.306975,0.522997383 C106.291095,0.522997383 94.4438644,5.414317 85.4132652,13.4000566 C76.3899067,5.414317 64.5426758,0.522997383 51.5267961,0.522997383 C23.2822793,0.522997383 0.382846117,23.3400147 0.382846117,51.4899993 C0.382846117,51.9099976 0.440771705,52.3155629 0.452356823,52.7240148 C0.429186588,53.084838 0.382846117,53.4456612 0.382846117,53.8209174 C0.382846117,100.619689 85.4132652,156.909556 85.4132652,156.909556 C85.4132652,156.909556 170.446581,100.619689 170.446581,53.8209174 C170.446581,53.4456612 170.406033,53.084838 170.382862,52.7240148 C170.394448,52.3155629 170.446581,51.9099976 170.446581,51.4899993 L170.446581,51.4899993 Z" id="Stroke-51" fill="#EA3C51"></path>
                    <polyline id="Stroke-53" stroke="#FFFFFF" stroke-width="1.79425837" points="7.1886187 78.715179 22.1145946 78.2316759 22.1145946 78.7166223 27.8564686 59.8672171 33.6026869 41.0206985 39.3489053 59.8672171 45.0951236 78.7166223 50.841342 97.5645842 56.5861122 116.411103 62.3279861 97.5645842 68.0742045 78.7166223 81.3695751 78.2316759 86.3222129 63.5057585 90.9548118 48.2977813 95.590307 63.5057585 100.22725 78.7166223 104.861297 93.9245995 109.498241 109.13402 114.136632 93.9245995 118.770679 78.7166223 122.51412 66.4356431 126.254665 54.1561071 130.001003 66.4356431 133.745892 78.7166223 137.487885 90.5126551 141.229878 102.792191 144.973319 90.5126551 148.715312 78.2316759 163.884576 78.2316759"></polyline>
                </g>
            </g>
        </g>
    </g>
</svg>