<?xml version="1.0" encoding="UTF-8"?>
<svg width="1711px" height="1711px" viewBox="0 0 1711 1711" version="1.1" xmlns="http://www.w3.org/2000/svg" xmlns:xlink="http://www.w3.org/1999/xlink">
    <!-- Generator: Sketch 49 (51002) - http://www.bohemiancoding.com/sketch -->
    <title>pharmacy</title>
    <desc>Created with Sketch.</desc>
    <defs></defs>
    <g id="Page-1" stroke="none" stroke-width="1" fill="none" fill-rule="evenodd">
        <g id="pharmacy">
            <path d="M1171,1171 L1171,1711 L540,1711 L540,1171 L1.13686838e-13,1171 L1.13686838e-13,540 L540,540 L540,0 L1171,0 L1171,540 L1711,540 L1711,1171 L1171,1171 Z" id="Combined-Shape" fill="#007B85"></path>
            <g id="Group" transform="translate(582.000000, 40.000000)" fill="#FFFFFF" fill-opacity="0.303074049">
                <path d="M61,545.772511 L-1.42108547e-14,484.772511 L0,0 L61,0 L61,545.772511 Z M152,636.772511 L91,575.772511 L91,0 L152,0 L152,636.772511 Z M243,727.772511 L182,666.772511 L182,0 L243,0 L243,727.772511 Z" id="Combined-Shape"></path>
            </g>
            <g id="Group-Copy" transform="translate(1307.000000, 703.500000) rotate(90.000000) translate(-1307.000000, -703.500000) translate(1185.500000, 339.500000)" fill="#FFFFFF" fill-opacity="0.303074049">
                <path d="M61,545.772511 L-1.42108547e-14,484.772511 L0,0 L61,0 L61,545.772511 Z M152,636.772511 L91,575.772511 L91,0 L152,0 L152,636.772511 Z M243,727.772511 L182,666.772511 L182,0 L243,0 L243,727.772511 Z" id="Combined-Shape"></path>
            </g>
            <g id="Group-Copy-2" transform="translate(1005.500000, 1307.000000) rotate(180.000000) translate(-1005.500000, -1307.000000) translate(884.000000, 943.000000)" fill="#FFFFFF" fill-opacity="0.303074049">
                <path d="M61,545.772511 L-1.42108547e-14,484.772511 L0,0 L61,0 L61,545.772511 Z M152,636.772511 L91,575.772511 L91,0 L152,0 L152,636.772511 Z M243,727.772511 L182,666.772511 L182,0 L243,0 L243,727.772511 Z" id="Combined-Shape"></path>
            </g>
            <g id="Group-Copy-3" transform="translate(404.000000, 1014.500000) rotate(270.000000) translate(-404.000000, -1014.500000) translate(282.500000, 650.500000)" fill="#FFFFFF" fill-opacity="0.303074049">
                <path d="M61,545.772511 L-1.42108547e-14,484.772511 L0,0 L61,0 L61,545.772511 Z M152,636.772511 L91,575.772511 L91,0 L152,0 L152,636.772511 Z M243,727.772511 L182,666.772511 L182,0 L243,0 L243,727.772511 Z" id="Combined-Shape"></path>
            </g>
        </g>
    </g>
</svg>