<?xml version="1.0" encoding="UTF-8"?>
<svg width="90px" height="83px" viewBox="0 0 90 83" version="1.1" xmlns="http://www.w3.org/2000/svg" xmlns:xlink="http://www.w3.org/1999/xlink">
    <!-- Generator: Sketch 49 (51002) - http://www.bohemiancoding.com/sketch -->
    <title>heart</title>
    <desc>Created with Sketch.</desc>
    <defs></defs>
    <g id="Page-1" stroke="none" stroke-width="1" fill="none" fill-rule="evenodd">
        <g id="12" transform="translate(-376.000000, -300.000000)">
            <g id="heart" transform="translate(358.000000, 274.000000)">
                <g transform="translate(17.942584, 26.034765)">
                    <path d="M89.4844548,27.0322497 C89.4844548,12.2535077 77.4645332,0.274573626 62.6361619,0.274573626 C55.8028251,0.274573626 49.5830288,2.84251642 44.8419642,7.03502971 C40.104701,2.84251642 33.8849048,0.274573626 27.051568,0.274573626 C12.2231966,0.274573626 0.200994212,12.2535077 0.200994212,27.0322497 C0.200994212,27.2527487 0.231405145,27.4656705 0.237487332,27.6801078 C0.225322959,27.8695399 0.200994212,28.0589721 0.200994212,28.2559816 C0.200994212,52.825337 44.8419642,82.3775167 44.8419642,82.3775167 C44.8419642,82.3775167 89.4844548,52.825337 89.4844548,28.2559816 C89.4844548,28.0589721 89.4631672,27.8695399 89.4510028,27.6801078 C89.457085,27.4656705 89.4844548,27.2527487 89.4844548,27.0322497 L89.4844548,27.0322497 Z" id="Stroke-51" fill="#EA3C51"></path>
                    <polyline id="Stroke-53" stroke="#FFFFFF" stroke-width="1.79425837" points="3.77402482 41.325469 11.6101622 41.0716298 11.6101622 41.3262267 14.624646 31.430289 17.6414106 21.5358667 20.6581753 31.430289 23.6749399 41.3262267 26.6917045 51.2214067 29.7077089 61.115829 32.7221927 51.2214067 35.7389574 41.3262267 42.7190269 41.0716298 45.3191618 33.3405232 47.7512762 25.3563352 50.1849112 33.3405232 52.6193065 41.3262267 55.0521812 49.3104147 57.4865764 57.2953605 59.9217319 49.3104147 62.3546066 41.3262267 64.3199132 34.8787126 66.2836993 28.4319562 68.2505264 34.8787126 70.2165933 41.3262267 72.1811396 47.5191439 74.145686 53.9659003 76.1109926 47.5191439 78.0755389 41.0716298 86.0394022 41.0716298"></polyline>
                </g>
            </g>
        </g>
    </g>
</svg>