<?xml version="1.0" encoding="UTF-8"?>
<svg width="363px" height="464px" viewBox="0 0 363 464" version="1.1" xmlns="http://www.w3.org/2000/svg" xmlns:xlink="http://www.w3.org/1999/xlink">
    <!-- Generator: Sketch 49 (51002) - http://www.bohemiancoding.com/sketch -->
    <title>social-workers</title>
    <desc>Created with Sketch.</desc>
    <defs></defs>
    <g id="Page-1" stroke="none" stroke-width="1" fill="none" fill-rule="evenodd">
        <g id="social-workers" fill="#3D9AD9">
            <path d="M77,464 L27,464 C38.3348852,408.303612 46.6682185,352.303612 52,296 C56.5023278,248.455419 55.8268294,198.325762 52,200 C50.1510469,200.808917 40.102569,214.937976 36,245 C34.6196313,255.114803 34.6196313,274.448137 36,303 L6,303 C0.1263645,258.094522 -0.8736355,227.094522 3,210 C11.3977758,172.94025 16.0161046,158.830334 27,139 C33.312194,127.60396 46,111 54,106 C62,101 80.511703,93 109,93 C135.511703,93 153,93 162,100 C192.621973,123.81709 191.309374,131.46744 226,146 C252.206249,156.978294 280.206249,162.311627 310,162 L316,189 C289.721373,191.120752 264.054706,189.454086 239,184 C229.828388,182.003459 214.821515,178.835144 201,173 C188.067141,167.540027 176.250885,159.416962 169,157 C161.873844,154.624615 162.246398,174.734698 162,184 C161.718678,194.578556 161.421804,195.21129 162,205 C163.16342,224.696406 163.019894,247.028979 162,278.5 C160.470703,325.689727 163.145286,325.788754 162,373 C161.263524,403.35917 159.763524,433.692503 157.5,464 L114,464 C116.760436,352 115.093769,296 109,296 C102.760436,296 92.0937694,352 77,464 Z" id="Path"></path>
            <circle id="Oval" cx="109" cy="40" r="40"></circle>
            <path d="M213.830924,97.0455809 C210.150083,91.6121168 208,85.0571478 208,78 C208,59.2223185 223.222319,44 242,44 C260.777681,44 276,59.2223185 276,78 C276,85.0374252 273.861918,91.5754746 270.1999,97 L271,97 C283.295986,99.7944153 291.962653,102.794415 297,106 C302.037347,109.205585 308.037347,115.538918 315,125 C322.832885,135.894148 328.166218,144.227481 331,150 C333.833782,155.772519 337.500449,165.772519 342,180 L360,251 C361.248304,255.362909 361.914971,258.362909 362,260 C362.31782,266.119062 360.743897,269.42955 360,271 C358.95757,273.200686 357.290903,275.200686 355,277 L355,463 L338,463 L338,277 C334.495725,274.840453 332.162391,272.840453 331,271 C329.837609,269.159547 328.170942,264.826214 326,258 L311,206 L331,202 L318,146 C304.354974,146.933171 294.688308,146.933171 289,146 C271.380931,143.109579 252.384924,139.003176 243,136 C229.070198,131.542463 211.403532,121.542463 190,106 C194.184322,103.847546 197.850989,102.180879 201,101 C204.116776,99.831209 208.393751,98.5130693 213.830924,97.0455809 Z" id="Combined-Shape"></path>
            <path d="M179,462 L222,462 L240,300 C242.711847,298.514507 244.711847,302.514507 246,312 C247.288153,321.485493 252.621487,371.485493 262,462 L306,462 C295.333333,377.333333 290,320.333333 290,291 C290,261.666667 290,232.666667 290,204 C268.448041,203.627391 252.614708,202.294057 242.5,200 C232.385292,197.705943 215.885292,191.705943 193,182 C195.867754,197.311587 195.867754,233.644921 193,291 C190.132246,348.355079 185.465579,405.355079 179,462 Z" id="Path-2"></path>
        </g>
    </g>
</svg>