<?xml version="1.0" encoding="UTF-8"?>
<svg width="196px" height="198px" viewBox="0 0 196 198" version="1.1" xmlns="http://www.w3.org/2000/svg" xmlns:xlink="http://www.w3.org/1999/xlink">
    <!-- Generator: Sketch 49 (51002) - http://www.bohemiancoding.com/sketch -->
    <title>steth</title>
    <desc>Created with Sketch.</desc>
    <defs></defs>
    <g id="SketchAppSources.com" stroke="none" stroke-width="1" fill="none" fill-rule="evenodd">
        <g id="Artboard" fill="#3D9AD9">
            <g id="steth">
                <path d="M160.846877,123.631368 C164.815825,118.557721 168.785552,113.377975 172.496597,108.388378 C173.248819,107.376996 173.984024,106.381883 174.700883,105.404545 C181.992947,95.4628179 186.986892,87.9451367 189.130732,83.2670437 C192.284738,76.3846613 192.164477,76.655853 192.932482,74.4325777 C195.056172,68.2847692 195.357386,63.5563908 195.357385,42.5138294 C195.357385,30.6784032 195.35227,21.7751769 195.370556,21.495789 C195.54455,18.3873296 194.843337,14.7407689 192.494402,11.1752279 C188.511603,5.12958152 181.090762,1.73597632 170.337976,1.73597632 L170.337976,14.7794546 C176.979678,14.7794546 180.227858,16.2648709 181.602126,18.350927 C182.192437,19.2469833 182.378403,20.2140754 182.347463,20.7668326 C182.322189,20.9293509 182.313907,30.6703509 182.313907,42.5138297 C182.313908,61.8425508 182.049838,65.9878559 180.603853,70.1737931 C180.047261,71.7850564 180.1238,71.6124599 177.273091,77.8330145 C175.633084,81.4116892 170.927363,88.4954902 164.183296,97.6900977 C163.483896,98.6436331 162.76584,99.6155345 162.030533,100.604175 C158.389388,105.499789 154.481768,110.598496 150.573371,115.59474 C150.336101,115.89805 150.10178,116.197202 149.87058,116.491998 C149.640175,116.198214 149.406672,115.900105 149.170242,115.597867 C145.261844,110.601624 141.354225,105.502917 137.71308,100.607302 C136.977772,99.6186621 136.259716,98.6467607 135.560316,97.6932253 C128.816249,88.4986178 124.110529,81.4148168 122.470521,77.8361421 C119.619813,71.6155875 119.696352,71.788184 119.139759,70.1769207 C117.693775,65.9909835 117.429705,61.8456783 117.429705,42.5169573 C117.429705,30.6734785 117.421423,20.9324785 117.396149,20.7699602 C117.365209,20.217203 117.551175,19.2501109 118.141486,18.3540546 C119.515755,16.2679985 122.763934,14.7825822 129.405637,14.7825822 L129.405637,1.7391039 C118.652851,1.7391039 111.232009,5.1327091 107.249211,11.1783555 C104.900275,14.7438965 104.199063,18.3904572 104.373056,21.4989166 C104.391342,21.7783045 104.386227,30.6815307 104.386227,42.516957 C104.386226,63.5595184 104.68744,68.2878968 106.811131,74.4357053 C107.579136,76.6589806 107.458874,76.3877889 110.61288,83.2701713 C112.756721,87.9482643 117.750665,95.4659455 125.042729,105.407672 C125.759588,106.385011 126.494793,107.380123 127.247015,108.391506 C130.95806,113.381102 134.927787,118.560848 138.896735,123.634496 C140.285351,125.409612 141.575122,127.045238 142.73337,128.503963 C143.19168,129.08117 143.56473,129.549363 143.84321,129.897879 C144.162464,136.81081 143.8174,145.76687 142.459211,156.845367 C141.408345,165.417086 138.857611,171.756638 135.340161,176.291454 C132.769841,179.605196 130.403479,181.208124 129.225299,181.645763 C128.320338,181.980956 126.51142,182.541523 124.057467,183.114709 C117.809606,184.574063 111.410832,185.111065 105.639685,184.225802 C99.3108665,183.254996 94.3167899,180.653876 90.7653599,176.089175 C88.3085818,172.931445 86.6886888,169.384718 85.807773,165.466307 C84.2523437,158.547586 85.0477272,150.855183 87.3742303,143.33706 C87.8940687,141.657196 89.5434343,137.524391 89.6464023,137.315493 C91.1630024,133.838546 91.5173949,133.198233 94.9628562,127.334799 C98.7357497,120.914146 100.724904,116.133873 102.504992,107.857839 C104.316807,94.1625516 97.0713144,85.1091711 85.040154,80.0414384 C79.0977342,77.5383885 73.2955782,76.4236454 69.2075172,76.1064943 L68.1986378,89.110897 C68.8317718,89.1600154 70.1036279,89.3211226 71.7867851,89.6445002 C74.6064885,90.1862376 77.4166408,90.9836529 79.9768598,92.0620614 C87.1592947,95.0874271 90.4965955,99.2574477 89.6623195,105.641342 C88.289392,111.920401 86.827469,115.433648 83.7172051,120.726648 C79.9746236,127.095717 79.4913492,127.968893 77.8135721,131.83684 C77.1411503,133.183542 76.0182799,135.911756 74.9137291,139.481125 C71.9715564,148.988792 70.9517246,158.851905 73.0819232,168.327263 C74.3725146,174.067957 76.797561,179.377553 80.4706713,184.098652 C86.2307533,191.502163 94.2386055,195.672981 103.662018,197.118481 C111.31329,198.292144 119.290841,197.622647 127.024261,195.816302 C130.048649,195.109876 132.368967,194.390831 133.761463,193.875051 C137.087545,192.63957 141.469079,189.671606 145.646655,184.285733 C150.629383,177.861832 154.073091,169.302896 155.405759,158.432573 C156.885126,146.365647 157.243263,136.48328 156.843286,128.711031 C158.168491,127.04211 159.458261,125.406485 160.846877,123.631368 Z" id="1" fill-rule="nonzero"></path>
                <path d="M128.26087,0 L141.304348,0 L141.304348,17.3913043 L128.26087,17.3913043 L128.26087,0 Z M158.226677,0 L171.270155,0 L171.270155,17.3913043 L158.226677,17.3913043 L158.226677,0 Z M34.7826087,117.391304 C15.5727044,117.391304 0,101.8186 0,82.6086957 C0,63.3987913 15.5727044,47.826087 34.7826087,47.826087 C53.992513,47.826087 69.5652174,63.3987913 69.5652174,82.6086957 C69.5652174,101.8186 53.992513,117.391304 34.7826087,117.391304 Z" id="2"></path>
            </g>
        </g>
    </g>
</svg>